<?xml version="1.0" encoding="UTF-8"?><svg id="Layer_1" xmlns="http://www.w3.org/2000/svg" viewBox="0 0 512 512"><defs><style>.cls-1{fill:#fff;}</style></defs><path class="cls-1" d="m256,512c141.16,0,256-114.84,256-256S397.16,0,256,0,0,114.84,0,256s114.84,256,256,256Zm-79.08-271.08l106.67-106.67c4.16-4.16,9.62-6.25,15.08-6.25s10.92,2.09,15.08,6.25c8.34,8.34,8.34,21.82,0,30.17l-91.58,91.58,91.58,91.58c8.34,8.34,8.34,21.82,0,30.16s-21.82,8.34-30.16,0l-106.67-106.67c-8.34-8.34-8.34-21.82,0-30.17Z"/></svg>