<?xml version="1.0" encoding="UTF-8"?><svg id="Capa_1" xmlns="http://www.w3.org/2000/svg" viewBox="0 0 310.99 405.73"><defs><style>.cls-1{fill:#fff;}</style></defs><path class="cls-1" d="m15.99,311c-4.1,0-8.19-1.56-11.31-4.69-6.25-6.25-6.25-16.38,0-22.63L283.68,4.69c6.25-6.25,16.38-6.25,22.63,0s6.25,16.38,0,22.63L27.32,306.31c-3.14,3.12-7.23,4.69-11.33,4.69Z"/><path class="cls-1" d="m295,311c-4.1,0-8.19-1.56-11.31-4.69L4.69,27.32C-1.56,21.07-1.56,10.93,4.69,4.69s16.38-6.25,22.63,0l278.99,278.99c6.25,6.25,6.25,16.38,0,22.63-3.14,3.12-7.23,4.69-11.3,4.69Z"/><path class="cls-1" d="m59.09,394.06c.43,0,.8.17,1.12.5l3.02,3.31c-2.11,2.5-4.69,4.43-7.72,5.8-3.04,1.37-6.69,2.05-10.96,2.05-3.74,0-7.13-.65-10.17-1.94s-5.63-3.11-7.78-5.44c-2.15-2.33-3.81-5.11-4.99-8.35s-1.76-6.8-1.76-10.69.62-7.45,1.85-10.69,2.97-6.02,5.2-8.35,4.9-4.14,8.01-5.44c3.11-1.3,6.54-1.94,10.31-1.94s6.94.6,9.79,1.8c2.86,1.2,5.34,2.8,7.45,4.79l-2.52,3.56c-.17.26-.38.48-.63.65s-.58.25-.99.25c-.46,0-.99-.23-1.6-.68-.61-.46-1.42-.97-2.41-1.53-1-.56-2.23-1.07-3.69-1.53s-3.29-.68-5.47-.68c-2.57,0-4.92.45-7.06,1.35-2.14.9-3.98,2.2-5.53,3.89-1.55,1.69-2.75,3.77-3.6,6.23-.85,2.46-1.28,5.24-1.28,8.33s.44,5.94,1.33,8.39c.89,2.45,2.11,4.52,3.67,6.23,1.56,1.71,3.4,3,5.51,3.89s4.39,1.33,6.84,1.33c1.49,0,2.83-.09,4.01-.27,1.19-.18,2.28-.45,3.28-.81,1-.36,1.94-.82,2.83-1.39.89-.56,1.76-1.24,2.63-2.03.19-.17.4-.31.61-.41.22-.11.44-.16.68-.16Z"/><path class="cls-1" d="m103.05,398.92l-.04,6.23h-32.04v-51.7h32.04v6.23h-24.34v16.38h19.58v6.01h-19.58v16.85h24.37Z"/><path class="cls-1" d="m151.28,405.15h-6.84c-1.37,0-2.36-.54-2.99-1.62l-12.78-17.93c-.41-.6-.85-1.03-1.33-1.28s-1.2-.38-2.16-.38h-5v21.2h-7.67v-51.7h14.9c3.34,0,6.21.34,8.62,1.03,2.41.68,4.4,1.66,5.97,2.92s2.74,2.78,3.49,4.55c.76,1.78,1.13,3.77,1.13,5.98,0,1.8-.28,3.49-.83,5.08-.55,1.58-1.36,3.01-2.43,4.27-1.07,1.26-2.37,2.35-3.91,3.26-1.54.91-3.28,1.61-5.22,2.09.96.58,1.79,1.38,2.48,2.41l14.54,20.12Zm-24.12-26.78c1.97,0,3.7-.24,5.2-.72,1.5-.48,2.76-1.16,3.76-2.03s1.76-1.92,2.27-3.13.76-2.55.76-4.01c0-2.98-.98-5.22-2.93-6.73-1.96-1.51-4.89-2.27-8.8-2.27h-7.24v18.9h6.98Z"/><path class="cls-1" d="m196.68,405.15h-6.84c-1.37,0-2.36-.54-2.99-1.62l-12.78-17.93c-.41-.6-.85-1.03-1.33-1.28-.48-.25-1.2-.38-2.16-.38h-5v21.2h-7.67v-51.7h14.9c3.33,0,6.21.34,8.62,1.03,2.41.68,4.4,1.66,5.98,2.92,1.57,1.26,2.74,2.78,3.49,4.55.76,1.78,1.13,3.77,1.13,5.98,0,1.8-.28,3.49-.83,5.08-.55,1.58-1.36,3.01-2.43,4.27-1.07,1.26-2.37,2.35-3.91,3.26s-3.28,1.61-5.22,2.09c.96.58,1.79,1.38,2.48,2.41l14.54,20.12Zm-24.12-26.78c1.97,0,3.7-.24,5.2-.72,1.5-.48,2.75-1.16,3.76-2.03s1.76-1.92,2.27-3.13.76-2.55.76-4.01c0-2.98-.98-5.22-2.93-6.73s-4.89-2.27-8.8-2.27h-7.24v18.9h6.98Z"/><path class="cls-1" d="m245.93,405.15h-5.9c-.67,0-1.22-.17-1.66-.5-.43-.34-.74-.77-.94-1.3l-4.57-11.99h-22.79l-4.57,11.99c-.17.46-.48.87-.94,1.24s-1.01.56-1.66.56h-5.9l20.59-51.7h7.74l20.59,51.7Zm-15.16-19.26l-7.67-20.05c-.55-1.37-1.1-3.1-1.66-5.18-.26,1.03-.53,1.99-.81,2.88-.28.89-.55,1.68-.81,2.38l-7.63,19.98h18.58Z"/><path class="cls-1" d="m291.14,405.15h-6.84c-1.37,0-2.36-.54-2.99-1.62l-12.78-17.93c-.41-.6-.85-1.03-1.33-1.28-.48-.25-1.2-.38-2.16-.38h-5v21.2h-7.67v-51.7h14.9c3.33,0,6.21.34,8.62,1.03,2.41.68,4.4,1.66,5.98,2.92,1.57,1.26,2.74,2.78,3.49,4.55.76,1.78,1.13,3.77,1.13,5.98,0,1.8-.28,3.49-.83,5.08-.55,1.58-1.36,3.01-2.43,4.27-1.07,1.26-2.37,2.35-3.91,3.26s-3.28,1.61-5.22,2.09c.96.58,1.79,1.38,2.48,2.41l14.54,20.12Zm-24.12-26.78c1.97,0,3.7-.24,5.2-.72,1.5-.48,2.75-1.16,3.76-2.03s1.76-1.92,2.27-3.13.76-2.55.76-4.01c0-2.98-.98-5.22-2.93-6.73s-4.89-2.27-8.8-2.27h-7.24v18.9h6.98Z"/></svg>