<?xml version="1.0" encoding="UTF-8"?><svg id="Capa_1" xmlns="http://www.w3.org/2000/svg" viewBox="0 0 461.83 512"><defs><style>.cls-1{fill:#fff;}</style></defs><g id="surface1"><path class="cls-1" d="m266.44,104.96h56.52L236.45,13.96v60.9c0,16.5,13.38,30.11,29.99,30.11Z"/><path class="cls-1" d="m323.99,236.34c-76.01,0-137.83,61.82-137.83,137.83s61.82,137.83,137.83,137.83,137.84-61.82,137.84-137.83-61.82-137.83-137.84-137.83Zm74.05,149.6l-67.59,72.55c-1.73,1.85-4.15,2.89-6.8,2.89s-4.96-1.04-6.69-2.89l-67.47-72.55c-3.46-3.69-3.23-9.57.46-13.04s9.69-3.23,13.15.46l51.67,55.36v-131.84c0-5.07,4.15-9.23,9.23-9.23s9.23,4.15,9.23,9.23v131.84l51.44-55.36c3.46-3.69,9.23-3.92,12.92-.46,3.8,3.46,3.92,9.23.46,13.04Z"/><path class="cls-1" d="m172.67,334.49h-100.23c-5.07,0-9.23-4.15-9.23-9.23s4.15-9.23,9.23-9.23h106.35c5.88-14.99,13.72-27.68,23.41-40.37H72.43c-5.07,0-9.23-4.15-9.23-9.23s4.15-9.23,9.23-9.23h147.29c27.68-24.22,64.36-39.68,104.38-39.68,3.8,0,6.92.34,11.54.69v-94.81h-69.21c-26.76,0-48.44-21.91-48.44-48.56V0H41.06C18.22,0,0,18.68,0,41.64v352.02c0,22.95,18.22,41.18,41.06,41.18h138.98c-7.96-18.45-12.34-39.21-12.34-60.9-.12-13.61,1.73-26.76,4.96-39.45Zm-100.23-134.95h116.84c5.07,0,9.23,4.15,9.23,9.23s-4.15,9.23-9.23,9.23h-116.84c-5.07,0-9.23-4.15-9.23-9.23s4.15-9.23,9.23-9.23Z"/></g></svg>