<?xml version="1.0" encoding="UTF-8"?><svg id="Modo_de_aislamiento" xmlns="http://www.w3.org/2000/svg" viewBox="0 0 512 512"><defs><style>.cls-1{fill:#fff;}</style></defs><path class="cls-1" d="m483.74,0H28.24C12.64,0,0,12.66,0,28.26v455.5c0,15.6,12.66,28.24,28.26,28.24h245.24v-198h-66.5v-77.5h66.5v-57.04c0-66.14,40.38-102.14,99.38-102.14,28.26,0,52.54,2.11,59.62,3.05v69.13h-40.68c-32.1,0-38.32,15.25-38.32,37.64v49.36h76.75l-10,77.5h-66.75v198h130.24c15.61,0,28.26-12.64,28.26-28.25h0V28.24C511.99,12.64,499.34,0,483.74,0Z"/></svg>