<?xml version="1.0" encoding="UTF-8"?><svg id="Capa_1" xmlns="http://www.w3.org/2000/svg" viewBox="0 0 409.6 409.61"><defs><style>.cls-1{fill:#fff;}</style></defs><path class="cls-1" d="m307.2,0H102.4C46.09,0,0,46.08,0,102.4v204.81c0,56.3,46.09,102.4,102.4,102.4h204.8c56.32,0,102.4-46.1,102.4-102.4V102.4c0-56.32-46.09-102.4-102.4-102.4Zm68.27,307.21c0,37.63-30.61,68.26-68.26,68.26H102.4c-37.64,0-68.26-30.63-68.26-68.27V102.4c0-37.64,30.63-68.26,68.26-68.26h204.8c37.65,0,68.27,30.62,68.27,68.26v204.81h0Z"/><circle class="cls-1" cx="315.75" cy="93.86" r="25.6"/><path class="cls-1" d="m204.8,102.4c-56.57,0-102.4,45.84-102.4,102.4s45.83,102.41,102.4,102.41,102.4-45.87,102.4-102.41-45.85-102.4-102.4-102.4Zm0,170.68c-37.7,0-68.26-30.57-68.26-68.27s30.57-68.26,68.26-68.26,68.27,30.56,68.27,68.26-30.57,68.27-68.27,68.27Z"/></svg>