<?xml version="1.0" encoding="UTF-8"?><svg id="Capa_1" xmlns="http://www.w3.org/2000/svg" viewBox="0 0 512 512"><defs><style>.cls-1{fill:#fff;}</style></defs><g id="Layer_2"><g id="linkedin"><path id="icon" class="cls-1" d="m442.18,0H69.82C31.26,0,0,31.26,0,69.82v372.36c0,38.56,31.26,69.82,69.82,69.82h372.36c38.56,0,69.82-31.26,69.82-69.82V69.82c0-38.56-31.26-69.82-69.82-69.82ZM174.55,405.18c.02,5.96-4.8,10.81-10.76,10.82,0,0-.02,0-.03,0h-45.99c-5.96.02-10.81-4.8-10.82-10.76,0-.02,0-.04,0-.06v-192.81c0-5.98,4.85-10.82,10.82-10.82h45.99c5.97.02,10.79,4.86,10.79,10.82v192.81Zm-33.8-221.91c-24.1,0-43.64-19.54-43.64-43.64s19.54-43.64,43.64-43.64,43.64,19.54,43.64,43.64-19.54,43.64-43.64,43.64Zm274.21,222.66c.02,5.48-4.41,9.93-9.89,9.95-.02,0-.04,0-.06,0h-49.45c-5.48.02-9.93-4.41-9.95-9.89,0-.02,0-.04,0-.06v-90.33c0-13.5,3.96-59.11-35.29-59.11-30.4,0-36.6,31.21-37.82,45.24v104.32c0,5.44-4.37,9.87-9.8,9.95h-47.77c-5.48,0-9.92-4.44-9.92-9.92,0,0,0-.02,0-.03v-194.53c-.02-5.48,4.41-9.93,9.89-9.95,0,0,.02,0,.03,0h47.77c5.49,0,9.95,4.45,9.95,9.95v16.81c11.29-16.96,28.01-29.99,63.71-29.99,79.07,0,78.55,73.83,78.55,114.39l.06,93.21Z"/></g></g></svg>