<?xml version="1.0" encoding="UTF-8"?><svg id="Capa_1" xmlns="http://www.w3.org/2000/svg" viewBox="0 0 512 360"><defs><style>.cls-1{fill:#2fc1bd;}</style></defs><path class="cls-1" d="m331.76,201.25l-42.88,43.03c-17.39,17.45-47.99,17.83-65.75,0l-42.88-43.03L26.23,355.77c5.73,2.65,12.05,4.23,18.77,4.23h422c6.72,0,13.04-1.58,18.77-4.23l-154.01-154.52Z"/><path class="cls-1" d="m467,0H45c-6.72,0-13.04,1.58-18.77,4.23l164.58,165.12s.02.01.04.02.01.03.01.03l53.51,53.69c5.68,5.68,17.59,5.68,23.27,0l53.5-53.68s.01-.02.02-.04c0,0,.02-.01.04-.02L485.77,4.23c-5.73-2.65-12.05-4.23-18.77-4.23Z"/><path class="cls-1" d="m4.79,25.21C1.82,31.21,0,37.87,0,45v270c0,7.13,1.82,13.79,4.78,19.79l154.28-154.78L4.79,25.21Z"/><path class="cls-1" d="m507.21,25.21l-154.28,154.8,154.28,154.79c2.97-6,4.79-12.66,4.79-19.79V45c0-7.13-1.82-13.79-4.79-19.79Z"/></svg>