<?xml version="1.0" encoding="UTF-8"?><svg id="Capa_1" xmlns="http://www.w3.org/2000/svg" viewBox="0 0 235.14 187.61"><defs><style>.cls-1{fill:#fff;}</style></defs><path class="cls-1" d="m69.55,135.3v51.7h-6.7v-36.79c0-.55.02-1.14.05-1.76.04-.62.08-1.26.13-1.91l-17.21,31.57c-.6,1.18-1.52,1.76-2.77,1.76h-1.08c-1.25,0-2.16-.59-2.74-1.76l-17.53-31.68c.14,1.34.22,2.6.22,3.78v36.79h-6.73v-51.7h5.69c.67,0,1.19.07,1.57.2.37.13.73.5,1.06,1.1l17.28,30.96c.34.62.65,1.28.94,1.98.29.7.56,1.39.83,2.09.5-1.42,1.09-2.78,1.76-4.1l16.96-30.92c.31-.6.65-.97,1.03-1.1.37-.13.89-.2,1.57-.2h5.69Z"/><path class="cls-1" d="m114.4,180.77l-.04,6.23h-32.04v-51.7h32.04v6.23h-24.34v16.38h19.58v6.01h-19.58v16.85h24.37Z"/><path class="cls-1" d="m166.21,135.3v51.7h-3.89c-.6,0-1.1-.11-1.49-.32-.4-.22-.8-.56-1.21-1.04l-29.2-37.76c.05.65.09,1.28.13,1.91.04.62.05,1.21.05,1.76v35.46h-6.73v-51.7h3.96c.67,0,1.18.08,1.51.23.34.16.71.51,1.12,1.06l29.27,37.8c-.07-.7-.13-1.37-.16-2.03-.04-.66-.05-1.28-.05-1.85v-35.21h6.7Z"/><path class="cls-1" d="m199.14,180.84c2.06,0,3.91-.35,5.54-1.04,1.63-.7,3.01-1.67,4.14-2.93,1.13-1.26,1.99-2.76,2.59-4.5s.9-3.67.9-5.78v-31.28h7.63v31.28c0,3.02-.48,5.82-1.44,8.39-.96,2.57-2.34,4.79-4.14,6.66-1.8,1.87-3.98,3.34-6.55,4.39-2.57,1.06-5.46,1.58-8.68,1.58s-6.11-.53-8.68-1.58c-2.57-1.06-4.75-2.52-6.55-4.39-1.8-1.87-3.18-4.09-4.14-6.66-.96-2.57-1.44-5.36-1.44-8.39v-31.28h7.67v31.25c0,2.11.29,4.04.88,5.8.59,1.75,1.45,3.26,2.57,4.52,1.13,1.26,2.51,2.24,4.14,2.93,1.63.7,3.48,1.04,5.54,1.04Zm14-60.59l-11.74,10.3c-.41.34-.78.55-1.12.65-.34.1-.78.14-1.33.14h-5.08l8.14-9.86c.22-.29.43-.51.63-.67.2-.16.43-.28.67-.36.24-.08.52-.14.83-.16.31-.02.67-.04,1.08-.04h7.92Z"/><rect class="cls-1" width="235.14" height="15"/><rect class="cls-1" y="36" width="235.14" height="15"/><rect class="cls-1" y="79" width="235.14" height="15"/></svg>