<?xml version="1.0" standalone="no"?>
<!DOCTYPE svg PUBLIC "-//W3C//DTD SVG 20010904//EN"
 "http://www.w3.org/TR/2001/REC-SVG-20010904/DTD/svg10.dtd">
<svg version="1.0" xmlns="http://www.w3.org/2000/svg"
 width="655.000000pt" height="655.000000pt" viewBox="0 0 655.000000 655.000000"
 preserveAspectRatio="xMidYMid meet">
<metadata>
Created by potrace 1.14, written by Peter Selinger 2001-2017
</metadata>
<g transform="translate(0.000000,655.000000) scale(0.100000,-0.100000)"
fill="#000000" stroke="none">
<path d="M2405 5394 c-1163 -1171 -1093 -1100 -1186 -1215 -290 -357 -507
-845 -565 -1274 -4 -27 -8 -59 -10 -70 -24 -124 -23 -549 1 -690 8 -49 14 -87
20 -130 3 -22 8 -46 11 -54 2 -8 7 -30 10 -49 3 -19 19 -82 35 -141 121 -433
355 -835 679 -1162 167 -169 288 -264 540 -425 38 -25 230 -125 230 -120 0 1
-42 34 -92 72 -243 181 -474 466 -606 747 -47 99 -112 269 -112 292 0 9 -4 24
-9 33 -9 17 -39 149 -47 207 -2 17 -6 41 -9 55 -16 79 -24 321 -14 420 4 36
10 92 13 125 26 263 155 610 318 853 120 179 60 116 1120 1186 l574 578 516
-518 c642 -645 962 -969 1008 -1020 120 -132 248 -330 325 -504 46 -102 108
-272 120 -326 2 -10 10 -50 18 -89 33 -154 42 -243 42 -425 -1 -217 -22 -383
-71 -545 -10 -33 -18 -62 -19 -65 -12 -63 -108 -279 -185 -415 -25 -45 -119
-187 -129 -195 -3 -3 -22 -25 -41 -50 -90 -118 -244 -266 -380 -365 -36 -26
-67 -49 -70 -53 -17 -19 251 131 346 194 562 373 953 921 1122 1574 29 112 35
141 47 225 4 22 8 47 10 55 2 8 7 47 10 85 4 39 8 86 11 105 4 40 5 323 0 390
-4 44 -14 130 -21 180 -2 14 -7 44 -10 68 -3 24 -15 82 -26 130 -11 48 -22 98
-25 111 -26 123 -126 377 -214 548 -130 251 -267 438 -488 665 -260 266 -1891
1908 -1896 1908 -1 0 -406 -408 -901 -906z"/>
</g>
</svg>
