<?xml version="1.0" encoding="UTF-8"?><svg id="Modo_de_aislamiento" xmlns="http://www.w3.org/2000/svg" viewBox="0 0 128.98 149.23"><defs><style>.cls-1{fill:#142f59;}</style></defs><path class="cls-1" d="m2.2,75.1c.13-2.24,1.09-4.27,1.82-6.31,1.56-4.37,3.65-8.52,6.19-12.42,2.41-3.72,5.2-7.12,8.28-10.33,9.11-9.47,18.51-18.65,27.76-27.98,2.98-3.01,6.13-5.86,8.99-8.98,2.7-2.95,5.61-5.67,8.34-8.57.58-.62.92-.73,1.59-.06,10.65,10.71,21.39,21.35,31.99,32.11,4.65,4.73,9.4,9.35,14,14.13,4.38,4.55,7.98,9.66,10.8,15.33,1.91,3.83,3.54,7.75,4.67,11.89.09.32.13.62.13.94-8.39,0-16.79,0-25.18,0-.64,0-1.27.04-1.88.24-.85-.48-1.43-1.26-2.11-1.93-2.72-2.7-5.5-5.35-8.11-8.15-1.95-2.09-4.1-3.99-6.04-6.07-4.12-4.4-8.48-8.55-12.66-12.88-1.83-1.89-3.73-3.71-5.57-5.6-.46-.47-.71-.65-1.29-.07-6.01,6.07-12.08,12.09-18.1,18.15-5.5,5.54-10.98,11.12-16.46,16.67-.08.08-.2.12-.3.17-.58-.11-1.14-.3-1.75-.3-8.36.02-16.73.02-25.09.02Z"/><path class="cls-1" d="m99.69,75.08c.61-.19,1.24-.24,1.88-.24,8.39.01,16.79,0,25.18,0,.93,2.53,1.23,5.2,1.64,7.84.58,3.79.72,7.63.48,11.45-.43,6.71-1.55,13.31-4.05,19.61-2.61,6.6-5.97,12.79-10.56,18.23-5.88,6.98-12.83,12.64-21.05,16.69-.26.13-.53.41-.98.13,2.5-1.66,4.8-3.55,6.85-5.65,4.74-4.86,8.47-10.44,10.92-16.8,1.51-3.91,2.34-7.99,2.9-12.16.41-3.12.36-6.23.14-9.29-.36-4.91-1.46-9.7-3.4-14.31-1.42-3.39-3.18-6.57-5.21-9.59-1.4-2.09-3.14-3.96-4.73-5.92Z"/><path class="cls-1" d="m2.2,75.1c8.36,0,16.73,0,25.09-.02.61,0,1.17.19,1.75.3-3.35,3.79-6.32,7.84-8.47,12.44-1.51,3.22-2.62,6.58-3.53,10.03-1.29,4.91-1.39,9.89-1.08,14.87.47,7.48,2.78,14.44,6.58,20.91,3.52,6,8.2,10.92,13.81,14.99.19.14.37.28.81.6-1.67-.35-2.77-1.2-3.94-1.84-3.12-1.71-6.01-3.76-8.85-5.92-2.32-1.76-4.41-3.76-6.39-5.82-6.24-6.46-10.88-13.98-14-22.43-1.59-4.32-2.69-8.76-3.38-13.29-.64-4.2-.73-8.47-.46-12.7.27-4.09.75-8.19,2.05-12.13Z"/></svg>